<svg version="1.2" xmlns="http://www.w3.org/2000/svg" viewBox="0 0 1853 1853" width="1853" height="1853">
	<title>Asset 8-svg</title>
	<style>
		.s0 { fill: #66C0F4 } 
	</style>
	<g id="Layer_1-2">
		<path id="Layer" class="s0" d="m806.2 1004.3v-225.4q0-6.7 0.4-13.3c4.3-80.8 46.9-154.7 114.8-198.7l206.3-119.6c78.1-45.2 126.3-128.6 126.2-218.9l-0.1-228.4-506.6 292.8-138.9 80.2c-78.2 45.2-126.3 128.6-126.3 218.9v745.4l197.7-114c78.3-45.2 126.5-128.6 126.5-219zm563.7-489.4l-197.7 114.1c-78.3 45.1-126.5 128.6-126.5 218.9v225.4q0 6.7-0.4 13.4c-4.2 80.7-46.9 154.6-114.7 198.6l-206.3 119.6c-78.2 45.2-126.3 128.7-126.3 219l0.1 228.3 506.7-292.8 138.8-80.2c78.2-45.2 126.3-128.6 126.3-218.8v-745.5z"/>
	</g>
</svg>